<svg xmlns="http://www.w3.org/2000/svg" width="192" height="58" viewBox="0 0 192 58" fill="none"><path fill-rule="evenodd" clip-rule="evenodd" d="M187.942 20.374C188.033 20.361 188.149 20.361 188.316 20.361C188.781 20.361 188.976 20.568 188.976 20.839C188.976 21.175 188.666 21.304 188.265 21.304H187.942V20.374ZM187.942 21.834H188.253C188.6 21.834 188.807 21.976 188.859 22.325C188.923 22.764 188.976 23.048 189.052 23.164H189.763C189.712 23.061 189.647 22.868 189.583 22.364C189.531 21.886 189.35 21.627 189.066 21.576V21.55C189.415 21.459 189.686 21.188 189.686 20.801C189.686 20.464 189.583 20.245 189.402 20.103C189.182 19.935 188.846 19.844 188.292 19.844C187.8 19.844 187.516 19.896 187.257 19.935V23.164H187.942V21.834ZM188.446 19.147C189.673 19.147 190.668 20.194 190.668 21.485C190.668 22.79 189.673 23.824 188.446 23.81C187.218 23.81 186.237 22.79 186.237 21.485C186.237 20.194 187.218 19.147 188.433 19.147H188.446ZM188.446 18.566C186.843 18.566 185.54 19.87 185.54 21.472C185.54 23.1 186.843 24.391 188.446 24.391C190.06 24.391 191.339 23.1 191.339 21.472C191.339 19.87 190.06 18.566 188.459 18.566H188.446ZM189.344 40.716H190.497V31.407H189.344V40.716ZM186.277 40.716H187.43V34.37H186.277V40.716ZM186.84 33.204C187.297 33.204 187.588 32.864 187.588 32.458C187.588 32.049 187.297 31.723 186.852 31.723C186.408 31.723 186.105 32.049 186.105 32.458C186.105 32.864 186.395 33.204 186.829 33.204H186.84ZM184.73 39.63C184.402 39.773 183.97 39.93 183.314 39.93C182.054 39.93 181.111 39.027 181.111 37.557C181.111 36.234 181.898 35.145 183.354 35.145C183.982 35.145 184.416 35.303 184.689 35.447L184.954 34.567C184.639 34.397 184.034 34.229 183.354 34.229C181.279 34.229 179.944 35.659 179.944 37.611C179.944 39.565 181.19 40.862 183.104 40.862C183.957 40.862 184.624 40.639 184.926 40.495L184.73 39.63ZM173.127 40.716H174.28V36.889C174.28 36.705 174.307 36.495 174.357 36.351C174.569 35.708 175.158 35.17 175.905 35.17C176.995 35.17 177.375 36.037 177.375 37.061V40.716H178.528V36.929C178.528 34.751 177.166 34.229 176.285 34.229C175.239 34.229 174.502 34.818 174.187 35.408H174.161L174.095 34.37H173.073C173.113 34.898 173.127 35.421 173.127 36.088V40.716ZM171.212 34.37H170.057V38.253C170.057 38.477 170.019 38.685 169.953 38.843C169.743 39.368 169.205 39.905 168.431 39.905C167.395 39.905 167.015 39.079 167.015 37.871V34.37H165.862V38.081C165.862 40.298 167.055 40.862 168.051 40.862C169.178 40.862 169.862 40.192 170.15 39.682H170.175L170.241 40.716H171.263C171.224 40.219 171.212 39.642 171.212 38.988V34.37ZM161.313 39.996C160.198 39.996 159.411 38.948 159.411 37.557C159.411 36.351 160 35.093 161.351 35.093C162.715 35.093 163.253 36.442 163.253 37.518C163.253 38.961 162.427 39.996 161.325 39.996H161.313ZM161.299 40.862C162.806 40.862 164.446 39.839 164.446 37.48C164.446 35.55 163.213 34.229 161.392 34.229C159.646 34.229 158.244 35.473 158.244 37.597C158.244 39.603 159.581 40.862 161.286 40.862H161.299ZM157.249 39.525C156.788 39.748 156.08 39.893 155.372 39.893C153.234 39.893 151.99 38.514 151.99 36.337C151.99 34.017 153.367 32.692 155.437 32.692C156.171 32.692 156.788 32.85 157.208 33.06L157.496 32.13C157.194 31.972 156.488 31.735 155.398 31.735C152.657 31.735 150.784 33.596 150.784 36.378C150.784 39.287 152.644 40.862 155.136 40.862C156.212 40.862 157.063 40.653 157.47 40.443L157.249 39.525ZM142.863 40.415C143.309 40.68 143.951 40.862 144.647 40.862C146.129 40.862 147.006 40.075 147.006 38.948C147.006 37.991 146.428 37.439 145.34 37.034C144.516 36.718 144.148 36.482 144.148 35.944C144.148 35.473 144.516 35.079 145.198 35.079C145.788 35.079 146.247 35.303 146.496 35.447L146.771 34.62C146.428 34.397 145.867 34.229 145.222 34.229C143.874 34.229 143.035 35.066 143.035 36.088C143.035 36.849 143.573 37.466 144.725 37.885C145.564 38.2 145.892 38.5 145.892 39.053C145.892 39.59 145.5 39.996 144.672 39.996C144.097 39.996 143.492 39.761 143.139 39.549L142.863 40.415ZM140.228 38.056C140.228 38.24 140.214 38.396 140.176 38.554C139.967 39.407 139.259 39.93 138.484 39.93C137.252 39.93 136.609 38.869 136.609 37.572C136.609 36.183 137.317 35.132 138.511 35.132C139.376 35.132 140.006 35.736 140.176 36.455C140.214 36.614 140.228 36.796 140.228 36.954V38.056ZM140.228 31.407V35.186H140.201C139.927 34.686 139.271 34.229 138.288 34.229C136.753 34.229 135.43 35.513 135.444 37.636C135.444 39.565 136.636 40.862 138.17 40.862C139.204 40.862 139.967 40.325 140.319 39.616H140.345L140.398 40.716H141.434C141.395 40.285 141.38 39.642 141.38 39.079V31.407H140.228ZM131.69 40.716H132.845V37.335C132.845 37.138 132.857 36.954 132.884 36.784C133.043 35.932 133.618 35.315 134.431 35.315C134.589 35.315 134.708 35.329 134.838 35.342V34.266C134.732 34.239 134.64 34.229 134.524 34.229C133.749 34.229 133.043 34.765 132.753 35.618H132.712L132.663 34.37H131.652C131.69 34.962 131.704 35.605 131.704 36.351L131.69 40.716ZM128.713 38.581C128.713 38.699 128.702 38.829 128.664 38.948C128.478 39.486 127.94 40.01 127.103 40.01C126.524 40.01 126.027 39.669 126.027 38.908C126.027 37.676 127.456 37.453 128.713 37.48V38.581ZM129.84 36.824C129.84 35.55 129.37 34.229 127.416 34.229C126.617 34.229 125.843 34.451 125.318 34.777L125.583 35.55C126.027 35.249 126.643 35.079 127.244 35.079C128.546 35.066 128.688 36.025 128.688 36.548V36.679C126.235 36.667 124.873 37.506 124.873 39.04C124.873 39.956 125.529 40.862 126.813 40.862C127.718 40.862 128.413 40.415 128.754 39.919H128.795L128.899 40.716H129.934C129.868 40.285 129.84 39.748 129.84 39.197V36.824ZM122.303 38.056C122.303 38.24 122.29 38.396 122.252 38.554C122.041 39.407 121.333 39.93 120.561 39.93C119.327 39.93 118.684 38.869 118.684 37.572C118.684 36.183 119.392 35.132 120.585 35.132C121.453 35.132 122.082 35.736 122.252 36.455C122.29 36.614 122.303 36.796 122.303 36.954V38.056ZM122.303 31.407V35.186H122.276C122.001 34.686 121.344 34.229 120.363 34.229C118.829 34.229 117.503 35.513 117.517 37.636C117.517 39.565 118.71 40.862 120.245 40.862C121.281 40.862 122.041 40.325 122.394 39.616H122.421L122.473 40.716H123.507C123.47 40.285 123.457 39.642 123.457 39.079V31.407H122.303ZM110.698 40.716H111.853V36.889C111.853 36.705 111.881 36.495 111.931 36.351C112.141 35.708 112.733 35.17 113.479 35.17C114.568 35.17 114.948 36.037 114.948 37.061V40.716H116.101V36.929C116.101 34.751 114.739 34.229 113.858 34.229C112.81 34.229 112.076 34.818 111.759 35.408H111.736L111.669 34.37H110.646C110.686 34.898 110.698 35.421 110.698 36.088V40.716ZM107.723 38.581C107.723 38.699 107.712 38.829 107.67 38.948C107.488 39.486 106.95 40.01 106.111 40.01C105.534 40.01 105.034 39.669 105.034 38.908C105.034 37.676 106.465 37.453 107.723 37.48V38.581ZM108.85 36.824C108.85 35.55 108.379 34.229 106.424 34.229C105.625 34.229 104.851 34.451 104.326 34.777L104.588 35.55C105.034 35.249 105.651 35.079 106.253 35.079C107.551 35.066 107.696 36.025 107.696 36.548V36.679C105.245 36.667 103.882 37.506 103.882 39.04C103.882 39.956 104.538 40.862 105.823 40.862C106.728 40.862 107.421 40.415 107.762 39.919H107.8L107.907 40.716H108.941C108.877 40.285 108.85 39.748 108.85 39.197V36.824ZM100.3 33.204V34.37H99.318V35.249H100.3V38.712C100.3 39.458 100.433 40.024 100.748 40.377C101.023 40.68 101.456 40.862 101.994 40.862C102.439 40.862 102.793 40.784 103.018 40.704L102.965 39.826C102.793 39.879 102.609 39.905 102.295 39.905C101.652 39.905 101.428 39.458 101.428 38.671V35.249H103.08V34.37H101.428V32.85L100.3 33.204ZM93.22 40.285C93.692 40.599 94.622 40.862 95.475 40.862C97.561 40.862 98.556 39.669 98.556 38.305C98.556 37.007 97.808 36.299 96.315 35.708C95.096 35.236 94.557 34.83 94.557 34.005C94.557 33.402 95.017 32.682 96.222 32.682C97.023 32.682 97.613 32.931 97.889 33.099L98.202 32.168C97.822 31.945 97.154 31.735 96.261 31.735C94.545 31.735 93.404 32.759 93.404 34.134C93.404 35.368 94.295 36.129 95.738 36.654C96.93 37.098 97.401 37.583 97.401 38.396C97.401 39.3 96.722 39.905 95.554 39.905C94.767 39.905 94.033 39.656 93.522 39.328L93.22 40.285ZM130.858 21.261L133.19 27.121C133.257 27.251 133.283 27.344 133.283 27.41C133.283 27.487 133.244 27.567 133.19 27.684C132.917 28.275 132.535 28.72 132.22 28.97C131.878 29.271 131.501 29.456 131.212 29.534L131.501 30.503C131.788 30.451 132.339 30.255 132.917 29.769C133.702 29.075 134.266 27.959 135.09 25.783L136.823 21.261H135.605L134.344 24.984C134.189 25.443 134.054 25.928 133.939 26.308H133.914C133.807 25.928 133.651 25.43 133.493 25.009L132.116 21.261H130.858ZM127.503 20.093V21.261H126.521V22.138H127.503V25.6C127.503 26.348 127.634 26.911 127.95 27.265C128.224 27.567 128.657 27.75 129.195 27.75C129.64 27.75 129.995 27.671 130.217 27.593L130.165 26.713C129.995 26.767 129.81 26.793 129.498 26.793C128.853 26.793 128.629 26.348 128.629 25.561V22.138H130.283V21.261H128.629V19.739L127.503 20.093ZM124.174 27.606H125.327V21.261H124.174V27.606ZM124.738 20.093C125.196 20.093 125.485 19.752 125.485 19.344C125.485 18.938 125.196 18.611 124.75 18.611C124.304 18.611 124.002 18.938 124.002 19.344C124.002 19.752 124.291 20.093 124.723 20.093H124.738ZM119.835 27.605H120.988V24.223C120.988 24.027 121.002 23.843 121.029 23.673C121.187 22.82 121.761 22.203 122.576 22.203C122.732 22.203 122.85 22.217 122.981 22.23V21.155C122.877 21.128 122.786 21.115 122.667 21.115C121.893 21.115 121.187 21.653 120.897 22.505H120.857L120.805 21.261H119.796C119.835 21.849 119.848 22.493 119.848 23.239L119.835 27.605ZM117.921 21.261H116.767V25.14C116.767 25.363 116.727 25.574 116.662 25.73C116.453 26.255 115.913 26.793 115.139 26.793C114.105 26.793 113.723 25.967 113.723 24.76V21.261H112.57V24.971C112.57 27.186 113.763 27.75 114.759 27.75C115.887 27.75 116.569 27.081 116.858 26.571H116.885L116.949 27.605H117.973C117.934 27.109 117.921 26.53 117.921 25.874V21.261ZM111.063 26.516C110.735 26.662 110.303 26.82 109.647 26.82C108.387 26.82 107.444 25.914 107.444 24.447C107.444 23.121 108.231 22.034 109.687 22.034C110.316 22.034 110.749 22.191 111.023 22.334L111.285 21.456C110.972 21.286 110.369 21.115 109.687 21.115C107.614 21.115 106.277 22.545 106.277 24.498C106.277 26.452 107.521 27.75 109.438 27.75C110.29 27.75 110.959 27.527 111.261 27.383L111.063 26.516ZM100.836 23.804C100.926 23.004 101.427 21.928 102.608 21.928C103.892 21.928 104.205 23.083 104.192 23.804H100.836ZM105.268 24.642C105.295 24.512 105.308 24.327 105.308 24.093C105.308 22.925 104.77 21.102 102.699 21.102C100.848 21.102 99.709 22.611 99.709 24.538C99.709 26.439 100.889 27.737 102.83 27.737C103.838 27.737 104.547 27.514 104.955 27.33L104.744 26.516C104.323 26.688 103.812 26.832 102.984 26.832C101.833 26.832 100.848 26.19 100.822 24.63L105.268 24.642ZM93.22 27.174C93.692 27.487 94.622 27.75 95.475 27.75C97.561 27.75 98.556 26.557 98.556 25.193C98.556 23.895 97.808 23.188 96.315 22.597C95.096 22.125 94.557 21.719 94.557 20.893C94.557 20.289 95.017 19.568 96.222 19.568C97.023 19.568 97.613 19.818 97.889 19.988L98.202 19.056C97.822 18.833 97.154 18.624 96.261 18.624C94.545 18.624 93.404 19.648 93.404 21.023C93.404 22.257 94.295 23.016 95.738 23.542C96.93 23.987 97.401 24.472 97.401 25.286C97.401 26.19 96.722 26.793 95.554 26.793C94.767 26.793 94.033 26.543 93.522 26.217L93.22 27.174ZM64.629 40.912H73.493V17.801H64.629V40.912ZM63.703 10.561C63.703 12.117 64.219 13.338 65.25 14.225C66.281 15.108 67.558 15.552 69.075 15.552C70.593 15.552 71.868 15.108 72.899 14.225C73.929 13.338 74.444 12.117 74.444 10.561C74.444 8.972 73.929 7.732 72.899 6.846C71.868 5.96 70.593 5.516 69.075 5.516C67.558 5.516 66.281 5.96 65.25 6.846C64.219 7.732 63.703 8.972 63.703 10.561ZM61.017 40.173L61.005 34.382C59.859 34.807 58.781 35.13 57.771 35.352C56.763 35.578 55.73 35.689 54.675 35.689C53.649 35.689 52.693 35.554 51.804 35.285C50.913 35.019 50.138 34.622 49.474 34.098C48.811 33.573 48.283 32.914 47.89 32.12C47.501 31.328 47.304 30.407 47.304 29.356C47.304 27.326 47.929 25.761 49.179 24.667C50.433 23.574 52.052 23.026 54.041 23.026C55.278 23.026 56.439 23.188 57.523 23.512C58.609 23.835 59.588 24.243 60.461 24.734L60.475 18.532C59.36 18.13 59.33 18.09 57.93 17.783C56.537 17.48 54.945 17.432 53.226 17.432C50.997 17.432 48.954 17.718 47.101 18.285C45.247 18.856 43.65 19.666 42.309 20.715C40.968 21.764 39.928 23.026 39.19 24.498C38.451 25.975 38.082 27.603 38.082 29.391C38.082 31.199 38.429 32.839 39.121 34.316C39.814 35.789 40.824 37.037 42.15 38.067C43.476 39.094 45.096 39.888 47.01 40.445C48.925 41.002 51.103 41.282 53.544 41.282C55.263 41.282 56.799 41.154 58.155 40.895C59.512 40.639 59.624 40.58 61.017 40.173ZM36.352 25.706C36.352 23.05 35.25 21.066 33.045 19.76C30.84 18.454 27.806 17.801 23.943 17.801H13.609V40.912H22.43V33.978H23.813C25.686 33.978 27.394 33.807 28.937 33.46C30.48 33.116 31.798 32.596 32.894 31.902C33.99 31.21 34.84 30.346 35.445 29.306C36.051 28.268 36.352 27.067 36.352 25.706ZM87.658 36.497L19.796 57.833L0 4.003L71.243 0L87.658 36.497ZM27.877 25.806C27.877 26.9 27.49 27.703 26.711 28.217C25.931 28.731 24.808 28.988 23.338 28.988H22.343V22.792H23.425C26.394 22.792 27.877 23.797 27.877 25.806Z" fill="#006A71"></path></svg>